<mxfile host="Electron" agent="Mozilla/5.0 (Windows NT 10.0; Win64; x64) AppleWebKit/537.36 (KHTML, like Gecko) draw.io/27.0.9 Chrome/134.0.6998.205 Electron/35.4.0 Safari/537.36" version="27.0.9">
  <diagram name="Page-1" id="OPgmY4qfD-giZAf-gHaB">
    <mxGraphModel dx="1298" dy="671" grid="1" gridSize="10" guides="1" tooltips="1" connect="1" arrows="1" fold="1" page="1" pageScale="1" pageWidth="2339" pageHeight="3300" math="0" shadow="0">
      <root>
        <mxCell id="0" />
        <mxCell id="1" parent="0" />
        <mxCell id="0p_DhwerdPnyWtqNG18h-1" value="Nginx" style="rounded=1;whiteSpace=wrap;html=1;labelPosition=center;verticalLabelPosition=top;align=center;verticalAlign=bottom;" vertex="1" parent="1">
          <mxGeometry x="40" y="140" width="260" height="290" as="geometry" />
        </mxCell>
        <mxCell id="Plcwy17DOdT3PGH-Jqxa-3" value="Kuwaiba" style="rounded=1;whiteSpace=wrap;html=1;labelPosition=center;verticalLabelPosition=top;align=center;verticalAlign=bottom;" parent="1" vertex="1">
          <mxGeometry x="1160" y="140" width="250" height="280" as="geometry" />
        </mxCell>
        <mxCell id="2d1mk0AIY9TjeirYFbtI-4" value="inventory reports" style="rounded=0;whiteSpace=wrap;html=1;labelPosition=center;verticalLabelPosition=top;align=center;verticalAlign=bottom;" parent="1" vertex="1">
          <mxGeometry x="1230" y="185" width="170" height="225" as="geometry" />
        </mxCell>
        <mxCell id="2d1mk0AIY9TjeirYFbtI-2" style="edgeStyle=orthogonalEdgeStyle;rounded=0;orthogonalLoop=1;jettySize=auto;html=1;endArrow=none;startFill=0;" parent="1" source="Plcwy17DOdT3PGH-Jqxa-1" edge="1">
          <mxGeometry relative="1" as="geometry">
            <mxPoint x="840" y="1280" as="targetPoint" />
          </mxGeometry>
        </mxCell>
        <mxCell id="Plcwy17DOdT3PGH-Jqxa-1" value="PRIS&lt;div&gt;Provisioning Integration Server&lt;/div&gt;" style="rounded=1;whiteSpace=wrap;html=1;labelPosition=center;verticalLabelPosition=top;align=center;verticalAlign=bottom;" parent="1" vertex="1">
          <mxGeometry x="690" y="140" width="310" height="290" as="geometry" />
        </mxCell>
        <mxCell id="Plcwy17DOdT3PGH-Jqxa-17" value="requistion folder" style="rounded=0;whiteSpace=wrap;html=1;labelPosition=center;verticalLabelPosition=top;align=center;verticalAlign=bottom;" parent="1" vertex="1">
          <mxGeometry x="810" y="185" width="170" height="225" as="geometry" />
        </mxCell>
        <mxCell id="2d1mk0AIY9TjeirYFbtI-3" style="edgeStyle=orthogonalEdgeStyle;rounded=0;orthogonalLoop=1;jettySize=auto;html=1;endArrow=none;startFill=0;" parent="1" source="Plcwy17DOdT3PGH-Jqxa-2" edge="1">
          <mxGeometry relative="1" as="geometry">
            <mxPoint x="470" y="1280" as="targetPoint" />
          </mxGeometry>
        </mxCell>
        <mxCell id="Plcwy17DOdT3PGH-Jqxa-2" value="OpenNMS / Horizon" style="rounded=1;whiteSpace=wrap;html=1;labelPosition=center;verticalLabelPosition=top;align=center;verticalAlign=bottom;" parent="1" vertex="1">
          <mxGeometry x="340" y="140" width="260" height="290" as="geometry" />
        </mxCell>
        <mxCell id="2d1mk0AIY9TjeirYFbtI-1" style="edgeStyle=orthogonalEdgeStyle;rounded=0;orthogonalLoop=1;jettySize=auto;html=1;endArrow=none;startFill=0;" parent="1" source="Plcwy17DOdT3PGH-Jqxa-3" edge="1">
          <mxGeometry relative="1" as="geometry">
            <mxPoint x="1285" y="1280" as="targetPoint" />
          </mxGeometry>
        </mxCell>
        <mxCell id="2d1mk0AIY9TjeirYFbtI-6" style="edgeStyle=orthogonalEdgeStyle;rounded=0;orthogonalLoop=1;jettySize=auto;html=1;endArrow=none;startFill=0;" parent="1" source="Plcwy17DOdT3PGH-Jqxa-12" edge="1">
          <mxGeometry relative="1" as="geometry">
            <mxPoint x="200" y="1270" as="targetPoint" />
          </mxGeometry>
        </mxCell>
        <mxCell id="Plcwy17DOdT3PGH-Jqxa-12" value="index.html&lt;div&gt;test page&lt;/div&gt;" style="rounded=1;whiteSpace=wrap;html=1;" parent="1" vertex="1">
          <mxGeometry x="140" y="360" width="120" height="60" as="geometry" />
        </mxCell>
        <mxCell id="Plcwy17DOdT3PGH-Jqxa-13" value="OpenNMSInventoryReport&lt;div&gt;.groovy&lt;/div&gt;" style="shape=document;whiteSpace=wrap;html=1;boundedLbl=1;" parent="1" vertex="1">
          <mxGeometry x="1240" y="257.5" width="150" height="80" as="geometry" />
        </mxCell>
        <mxCell id="Plcwy17DOdT3PGH-Jqxa-14" value="Kuwaiba.&lt;div&gt;.groovy&lt;/div&gt;" style="shape=document;whiteSpace=wrap;html=1;boundedLbl=1;" parent="1" vertex="1">
          <mxGeometry x="860" y="310" width="100" height="80" as="geometry" />
        </mxCell>
        <mxCell id="Plcwy17DOdT3PGH-Jqxa-15" value="reqiisition&lt;div&gt;.properties&lt;/div&gt;" style="shape=document;whiteSpace=wrap;html=1;boundedLbl=1;" parent="1" vertex="1">
          <mxGeometry x="860" y="210" width="100" height="80" as="geometry" />
        </mxCell>
        <mxCell id="2d1mk0AIY9TjeirYFbtI-8" value="load requisition request sent to PRIS" style="endArrow=classic;html=1;rounded=0;" parent="1" edge="1">
          <mxGeometry x="0.027" y="20" width="50" height="50" relative="1" as="geometry">
            <mxPoint x="470" y="540" as="sourcePoint" />
            <mxPoint x="840" y="540" as="targetPoint" />
            <mxPoint as="offset" />
          </mxGeometry>
        </mxCell>
        <mxCell id="2d1mk0AIY9TjeirYFbtI-9" value="request API token" style="endArrow=classic;html=1;rounded=0;" parent="1" edge="1">
          <mxGeometry x="0.0233" y="10" width="50" height="50" relative="1" as="geometry">
            <mxPoint x="850" y="580" as="sourcePoint" />
            <mxPoint x="1280" y="580" as="targetPoint" />
            <mxPoint as="offset" />
          </mxGeometry>
        </mxCell>
        <mxCell id="2d1mk0AIY9TjeirYFbtI-10" value="API Token" style="endArrow=none;html=1;rounded=0;startArrow=classic;startFill=0;" parent="1" edge="1">
          <mxGeometry x="0.0233" y="10" width="50" height="50" relative="1" as="geometry">
            <mxPoint x="850" y="620" as="sourcePoint" />
            <mxPoint x="1280" y="620" as="targetPoint" />
            <mxPoint as="offset" />
          </mxGeometry>
        </mxCell>
        <mxCell id="2d1mk0AIY9TjeirYFbtI-28" value="List of reports with ID&#39;s" style="endArrow=none;html=1;rounded=0;startArrow=classic;startFill=0;" parent="1" edge="1">
          <mxGeometry x="0.0233" y="10" width="50" height="50" relative="1" as="geometry">
            <mxPoint x="850" y="700" as="sourcePoint" />
            <mxPoint x="1280" y="700" as="targetPoint" />
            <mxPoint as="offset" />
          </mxGeometry>
        </mxCell>
        <mxCell id="2d1mk0AIY9TjeirYFbtI-29" value="return CSV data from report" style="endArrow=none;html=1;rounded=0;startArrow=classic;startFill=0;" parent="1" edge="1">
          <mxGeometry x="0.0233" y="10" width="50" height="50" relative="1" as="geometry">
            <mxPoint x="850" y="820" as="sourcePoint" />
            <mxPoint x="1280" y="820" as="targetPoint" />
            <mxPoint as="offset" />
          </mxGeometry>
        </mxCell>
        <mxCell id="2d1mk0AIY9TjeirYFbtI-30" value="request list of reports with ID&#39;s" style="endArrow=classic;html=1;rounded=0;" parent="1" edge="1">
          <mxGeometry x="-0.0233" y="10" width="50" height="50" relative="1" as="geometry">
            <mxPoint x="850" y="660" as="sourcePoint" />
            <mxPoint x="1280" y="660" as="targetPoint" />
            <mxPoint as="offset" />
          </mxGeometry>
        </mxCell>
        <mxCell id="2d1mk0AIY9TjeirYFbtI-31" value="Run report by ID with report metadata" style="endArrow=classic;html=1;rounded=0;" parent="1" edge="1">
          <mxGeometry x="-0.0233" y="10" width="50" height="50" relative="1" as="geometry">
            <mxPoint x="850" y="750" as="sourcePoint" />
            <mxPoint x="1280" y="750" as="targetPoint" />
            <mxPoint as="offset" />
          </mxGeometry>
        </mxCell>
        <mxCell id="2d1mk0AIY9TjeirYFbtI-7" value="load requisition request" style="endArrow=classic;html=1;rounded=0;" parent="1" edge="1">
          <mxGeometry x="-0.037" y="10" width="50" height="50" relative="1" as="geometry">
            <mxPoint x="200" y="490" as="sourcePoint" />
            <mxPoint x="470" y="490" as="targetPoint" />
            <mxPoint as="offset" />
          </mxGeometry>
        </mxCell>
        <mxCell id="2d1mk0AIY9TjeirYFbtI-34" value="Turn CSV into requisition" style="text;html=1;align=center;verticalAlign=middle;whiteSpace=wrap;rounded=0;fillColor=default;strokeColor=default;" parent="1" vertex="1">
          <mxGeometry x="770" y="850" width="150" height="30" as="geometry" />
        </mxCell>
        <mxCell id="2d1mk0AIY9TjeirYFbtI-35" value="return&amp;nbsp; XML requsition" style="endArrow=none;html=1;rounded=0;startArrow=classic;startFill=0;" parent="1" edge="1">
          <mxGeometry x="0.0233" y="10" width="50" height="50" relative="1" as="geometry">
            <mxPoint x="470" y="910" as="sourcePoint" />
            <mxPoint x="840" y="910" as="targetPoint" />
            <mxPoint as="offset" />
          </mxGeometry>
        </mxCell>
        <mxCell id="2d1mk0AIY9TjeirYFbtI-62" value="Execute report" style="text;html=1;align=center;verticalAlign=middle;whiteSpace=wrap;rounded=0;fillColor=default;strokeColor=default;" parent="1" vertex="1">
          <mxGeometry x="1210" y="770" width="150" height="30" as="geometry" />
        </mxCell>
        <mxCell id="2d1mk0AIY9TjeirYFbtI-63" value="Synchronize Requisition and update nodes" style="text;html=1;align=center;verticalAlign=middle;whiteSpace=wrap;rounded=0;fillColor=default;strokeColor=default;" parent="1" vertex="1">
          <mxGeometry x="390" y="1030" width="150" height="30" as="geometry" />
        </mxCell>
        <mxCell id="2d1mk0AIY9TjeirYFbtI-64" value="Rescan nodes and update internal inventory" style="text;html=1;align=center;verticalAlign=middle;whiteSpace=wrap;rounded=0;fillColor=default;strokeColor=default;" parent="1" vertex="1">
          <mxGeometry x="395" y="1080" width="150" height="30" as="geometry" />
        </mxCell>
        <mxCell id="2d1mk0AIY9TjeirYFbtI-66" value="synchronize requisition request" style="endArrow=classic;html=1;rounded=0;" parent="1" edge="1">
          <mxGeometry x="-0.037" y="10" width="50" height="50" relative="1" as="geometry">
            <mxPoint x="200" y="1000" as="sourcePoint" />
            <mxPoint x="470" y="1000" as="targetPoint" />
            <mxPoint as="offset" />
          </mxGeometry>
        </mxCell>
        <mxCell id="2d1mk0AIY9TjeirYFbtI-67" value="requistion folder" style="rounded=0;whiteSpace=wrap;html=1;labelPosition=center;verticalLabelPosition=top;align=center;verticalAlign=bottom;" parent="1" vertex="1">
          <mxGeometry x="490" y="185" width="90" height="190" as="geometry" />
        </mxCell>
        <mxCell id="2d1mk0AIY9TjeirYFbtI-68" value="DB" style="shape=cylinder3;whiteSpace=wrap;html=1;boundedLbl=1;backgroundOutline=1;size=15;" parent="1" vertex="1">
          <mxGeometry x="370" y="195" width="60" height="80" as="geometry" />
        </mxCell>
        <mxCell id="2d1mk0AIY9TjeirYFbtI-71" style="edgeStyle=orthogonalEdgeStyle;rounded=0;orthogonalLoop=1;jettySize=auto;html=1;entryX=0.5;entryY=0;entryDx=0;entryDy=0;endArrow=none;startFill=0;dashed=1;" parent="1" source="2d1mk0AIY9TjeirYFbtI-69" target="2d1mk0AIY9TjeirYFbtI-70" edge="1">
          <mxGeometry relative="1" as="geometry" />
        </mxCell>
        <mxCell id="2d1mk0AIY9TjeirYFbtI-69" value="XML&amp;nbsp;&lt;div&gt;Requisition&lt;/div&gt;" style="shape=document;whiteSpace=wrap;html=1;boundedLbl=1;" parent="1" vertex="1">
          <mxGeometry x="495" y="195" width="80" height="40" as="geometry" />
        </mxCell>
        <mxCell id="2d1mk0AIY9TjeirYFbtI-70" value="XML&amp;nbsp;&lt;div&gt;Requisition&lt;/div&gt;" style="shape=document;whiteSpace=wrap;html=1;boundedLbl=1;" parent="1" vertex="1">
          <mxGeometry x="495" y="320" width="80" height="40" as="geometry" />
        </mxCell>
        <mxCell id="2d1mk0AIY9TjeirYFbtI-72" value="XML&amp;nbsp;&lt;div&gt;Requisition&lt;/div&gt;" style="shape=document;whiteSpace=wrap;html=1;boundedLbl=1;" parent="1" vertex="1">
          <mxGeometry x="495" y="240" width="80" height="40" as="geometry" />
        </mxCell>
        <mxCell id="2d1mk0AIY9TjeirYFbtI-73" value="load Requisition&lt;div&gt;button&lt;/div&gt;" style="rounded=1;whiteSpace=wrap;html=1;" parent="1" vertex="1">
          <mxGeometry x="80" y="460" width="100" height="50" as="geometry" />
        </mxCell>
        <mxCell id="2d1mk0AIY9TjeirYFbtI-74" value="Synchronize&lt;div&gt;Requisition&lt;/div&gt;" style="rounded=1;whiteSpace=wrap;html=1;" parent="1" vertex="1">
          <mxGeometry x="90" y="970" width="100" height="50" as="geometry" />
        </mxCell>
        <mxCell id="2d1mk0AIY9TjeirYFbtI-77" value="request synchronisation data" style="edgeStyle=orthogonalEdgeStyle;rounded=0;orthogonalLoop=1;jettySize=auto;html=1;" parent="1" edge="1">
          <mxGeometry x="-0.1948" y="-20" relative="1" as="geometry">
            <mxPoint x="470" y="1180" as="targetPoint" />
            <mxPoint x="1240" y="1180" as="sourcePoint" />
            <mxPoint as="offset" />
          </mxGeometry>
        </mxCell>
        <mxCell id="2d1mk0AIY9TjeirYFbtI-76" value="&lt;div&gt;Synchronize NETWORK changes From OpenNMS&lt;/div&gt;" style="rounded=1;whiteSpace=wrap;html=1;" parent="1" vertex="1">
          <mxGeometry x="1230" y="1160" width="120" height="100" as="geometry" />
        </mxCell>
        <mxCell id="2d1mk0AIY9TjeirYFbtI-78" value="return updated inventory (new nodes, ports, asset&lt;div&gt;&amp;nbsp;mac addresses, IP addresses etc)&lt;/div&gt;" style="edgeStyle=orthogonalEdgeStyle;rounded=0;orthogonalLoop=1;jettySize=auto;html=1;endArrow=none;startFill=1;startArrow=classic;exitX=-0.008;exitY=0.83;exitDx=0;exitDy=0;exitPerimeter=0;align=center;" parent="1" source="2d1mk0AIY9TjeirYFbtI-76" edge="1">
          <mxGeometry x="-0.3442" y="-23" relative="1" as="geometry">
            <mxPoint x="470" y="1243" as="targetPoint" />
            <mxPoint x="1220" y="1240" as="sourcePoint" />
            <mxPoint x="1" as="offset" />
          </mxGeometry>
        </mxCell>
        <mxCell id="2d1mk0AIY9TjeirYFbtI-80" value="POTENTIAL FUTURE STEPS" style="text;html=1;align=center;verticalAlign=middle;whiteSpace=wrap;rounded=0;" parent="1" vertex="1">
          <mxGeometry x="610" y="1195" width="120" height="30" as="geometry" />
        </mxCell>
        <mxCell id="2d1mk0AIY9TjeirYFbtI-81" value="Update Asset Table" style="text;html=1;align=center;verticalAlign=middle;whiteSpace=wrap;rounded=0;fillColor=default;strokeColor=default;" parent="1" vertex="1">
          <mxGeometry x="395" y="1130" width="150" height="30" as="geometry" />
        </mxCell>
      </root>
    </mxGraphModel>
  </diagram>
</mxfile>
